<svg xmlns="http://www.w3.org/2000/svg" viewBox="0 0 100 100">
  <path d="M 12 10 L 88 15 L 85 90 L 10 88 Z" fill="white" stroke="#111" stroke-width="6" stroke-linejoin="round"/>
  <path d="M 50 10 L 48 90 M 10 50 L 90 48" fill="none" stroke="#111" stroke-width="4" stroke-linecap="round"/>
  <!-- Top left shaded -->
  <path d="M 15 15 L 45 45 M 20 15 L 45 40 M 15 20 L 40 45 M 30 15 L 45 30 M 15 30 L 30 45 M 40 15 L 45 20 M 15 40 L 20 45" fill="none" stroke="#e31837" stroke-width="4"/>
  <!-- Bottom right shaded -->
  <path d="M 55 55 L 85 85 M 60 55 L 85 80 M 55 60 L 80 85 M 70 55 L 85 70 M 55 70 L 70 85 M 80 55 L 85 60 M 55 80 L 60 85" fill="none" stroke="#111" stroke-width="4"/>
</svg>